<svg xmlns="http://www.w3.org/2000/svg" xmlns:xlink="http://www.w3.org/1999/xlink" preserveAspectRatio="xMidYMid" width="14.375" height="14" viewBox="0 0 14.375 14">
  <defs>
    <style>
      .cls-1 {
        fill: #877d77;
        fill-rule: evenodd;
      }
    </style>
  </defs>
  <path d="M7.193,14.000 C3.220,14.000 -0.000,10.866 -0.000,7.000 C-0.000,3.134 3.220,-0.000 7.193,-0.000 C11.166,-0.000 14.386,3.134 14.386,7.000 C14.386,10.866 11.166,14.000 7.193,14.000 ZM7.193,1.355 C3.994,1.355 1.392,3.887 1.392,7.000 C1.392,10.113 3.994,12.645 7.193,12.645 C10.392,12.645 12.994,10.113 12.994,7.000 C12.994,3.887 10.392,1.355 7.193,1.355 ZM10.442,7.677 L6.497,7.677 L6.497,3.387 C6.497,3.013 6.808,2.710 7.193,2.710 C7.578,2.710 7.889,3.013 7.889,3.387 L7.889,6.322 L10.442,6.322 C10.826,6.322 11.138,6.626 11.138,7.000 C11.138,7.374 10.826,7.677 10.442,7.677 Z" class="cls-1"/>
</svg>
