<svg xmlns="http://www.w3.org/2000/svg" xmlns:xlink="http://www.w3.org/1999/xlink" preserveAspectRatio="xMidYMid" width="28" height="55" viewBox="0 0 28 55">
  <defs>
    <style>
      .cls-1 {
        fill: #f3edea;
        fill-rule: evenodd;
      }
    </style>
  </defs>
  <path d="M4.050,54.988 C1.634,53.624 0.001,51.046 0.001,48.084 C0.001,45.122 1.634,42.543 4.050,41.180 L4.050,41.180 C6.395,39.798 7.973,37.247 7.973,34.338 C7.973,31.428 6.395,28.878 4.050,27.496 L4.050,27.496 C1.634,26.133 0.001,23.554 0.001,20.592 C0.001,17.630 1.634,15.051 4.050,13.688 L4.050,13.688 C6.395,12.306 7.973,9.757 7.973,6.848 C7.973,3.938 6.395,1.402 4.050,0.020 L4.050,0.010 L28.009,0.010 L28.009,54.995 L11.885,54.995 L4.061,54.995 L4.050,54.995 L4.050,54.988 Z" class="cls-1"/>
</svg>
