<svg xmlns="http://www.w3.org/2000/svg" xmlns:xlink="http://www.w3.org/1999/xlink" preserveAspectRatio="xMidYMid" width="15.75" height="14" viewBox="0 0 15.75 14">
  <defs>
    <style>
      .cls-1 {
        fill: #877d77;
        fill-rule: evenodd;
      }
    </style>
  </defs>
  <path d="M11.332,1.400 C12.961,1.400 14.287,2.656 14.287,4.200 C14.287,8.325 9.641,11.383 7.886,12.390 C6.130,11.383 1.484,8.325 1.484,4.200 C1.484,2.656 2.810,1.400 4.439,1.400 C5.334,1.400 6.172,1.780 6.737,2.443 C7.017,2.772 7.439,2.963 7.886,2.963 L7.886,2.963 C8.332,2.963 8.754,2.772 9.034,2.443 C9.599,1.780 10.437,1.400 11.332,1.400 M11.332,-0.000 C9.939,-0.000 8.698,0.610 7.886,1.563 C7.073,0.610 5.832,-0.000 4.439,-0.000 C1.991,-0.000 0.007,1.880 0.007,4.200 C0.007,9.800 6.901,13.533 7.886,14.000 C8.870,13.533 15.764,9.800 15.764,4.200 C15.764,1.880 13.780,-0.000 11.332,-0.000 L11.332,-0.000 Z" class="cls-1"/>
</svg>
