<svg xmlns="http://www.w3.org/2000/svg" xmlns:xlink="http://www.w3.org/1999/xlink" preserveAspectRatio="xMidYMid" width="13.688" height="13.344" viewBox="0 0 13.688 13.344">
  <defs>
    <style>
      .cls-1 {
        fill: #877d77;
        fill-rule: evenodd;
      }
    </style>
  </defs>
  <path d="M7.702,-0.001 C3.446,-0.001 -0.005,2.984 -0.005,6.666 C-0.005,8.357 0.793,9.867 2.041,10.860 C1.885,11.442 1.773,12.039 1.711,12.646 C1.676,12.989 1.934,13.295 2.287,13.329 C2.309,13.332 2.330,13.333 2.351,13.333 C2.677,13.333 2.957,13.092 2.989,12.769 C3.031,12.360 3.100,11.957 3.189,11.561 C3.910,11.892 4.712,12.083 5.562,12.083 C8.636,12.083 11.128,9.658 11.128,6.666 C11.128,4.855 12.174,3.314 13.697,2.499 C12.283,0.995 10.117,-0.001 7.702,-0.001 ZM9.843,6.666 C9.843,8.963 7.922,10.833 5.562,10.833 C4.834,10.833 4.148,10.654 3.548,10.341 C4.273,8.330 5.619,6.561 7.434,5.300 C7.578,5.199 7.667,5.051 7.694,4.893 C7.721,4.736 7.686,4.568 7.583,4.428 C7.480,4.287 7.328,4.201 7.166,4.174 C7.003,4.148 6.831,4.182 6.687,4.282 C4.769,5.616 3.318,7.453 2.477,9.548 C1.737,8.799 1.280,7.785 1.280,6.666 C1.280,3.679 4.161,1.249 7.702,1.249 C9.153,1.249 10.540,1.669 11.670,2.429 C10.517,3.543 9.843,5.060 9.843,6.666 Z" class="cls-1"/>
</svg>
