<svg xmlns="http://www.w3.org/2000/svg" xmlns:xlink="http://www.w3.org/1999/xlink" preserveAspectRatio="xMidYMid" width="40" height="40" viewBox="0 0 40 40">
  <defs>
    <style>
      .cls-1 {
        fill: #948782;
        fill-rule: evenodd;
      }
    </style>
  </defs>
  <path d="M20.000,40.000 C8.955,40.000 -0.000,31.045 -0.000,20.000 C-0.000,8.955 8.955,0.000 20.000,0.000 C31.045,0.000 40.000,8.955 40.000,20.000 C40.000,31.045 31.045,40.000 20.000,40.000 ZM20.000,3.750 C11.040,3.750 3.750,11.040 3.750,20.000 C3.750,28.960 11.040,36.250 20.000,36.250 C28.960,36.250 36.250,28.960 36.250,20.000 C36.250,11.040 28.960,3.750 20.000,3.750 ZM23.125,28.750 C22.636,28.750 22.196,28.558 21.861,28.252 L21.858,28.257 L14.358,21.382 C13.971,21.026 13.750,20.526 13.750,20.000 C13.750,19.474 13.971,18.973 14.358,18.618 L21.858,11.743 L21.861,11.748 C22.196,11.441 22.636,11.250 23.125,11.250 C24.160,11.250 25.000,12.090 25.000,13.125 C25.000,13.672 24.762,14.160 24.388,14.502 L24.392,14.507 L18.399,20.000 L24.392,25.493 L24.388,25.498 C24.762,25.840 25.000,26.328 25.000,26.875 C25.000,27.910 24.160,28.750 23.125,28.750 Z" class="cls-1"/>
</svg>
