<svg xmlns="http://www.w3.org/2000/svg" xmlns:xlink="http://www.w3.org/1999/xlink" preserveAspectRatio="xMidYMid" width="32" height="32" viewBox="0 0 32 32">
  <defs>
    <style>
      .cls-1 {
        fill: #fff;
        fill-rule: evenodd;
      }
    </style>
  </defs>
  <path d="M16.000,32.000 C7.164,32.000 -0.000,24.836 -0.000,16.000 C-0.000,7.164 7.164,-0.000 16.000,-0.000 C24.836,-0.000 32.000,7.164 32.000,16.000 C32.000,24.836 24.836,32.000 16.000,32.000 ZM16.000,3.000 C8.832,3.000 3.000,8.832 3.000,16.000 C3.000,23.168 8.832,29.000 16.000,29.000 C23.168,29.000 29.000,23.168 29.000,16.000 C29.000,8.832 23.168,3.000 16.000,3.000 ZM18.500,23.000 C18.109,23.000 17.757,22.846 17.489,22.601 L17.486,22.605 L11.486,17.105 C11.177,16.821 11.000,16.421 11.000,16.000 C11.000,15.579 11.177,15.179 11.486,14.894 L17.486,9.394 L17.489,9.398 C17.757,9.153 18.109,9.000 18.500,9.000 C19.328,9.000 20.000,9.672 20.000,10.500 C20.000,10.937 19.809,11.328 19.510,11.601 L19.513,11.605 L14.720,16.000 L19.513,20.394 L19.510,20.398 C19.809,20.672 20.000,21.062 20.000,21.500 C20.000,22.328 19.328,23.000 18.500,23.000 Z" class="cls-1"/>
</svg>
