<?xml-stylesheet type="text/css" href="style.css" ?>
<svg xmlns="http://www.w3.org/2000/svg" xmlns:xlink="http://www.w3.org/1999/xlink" preserveAspectRatio="xMidYMid" width="24" height="24" viewBox="0 0 24 24">
  <path d="M24.000,7.137 C24.000,4.446 21.817,2.265 19.124,2.265 C18.486,2.265 17.856,2.392 17.269,2.640 C15.071,-0.269 10.928,-0.847 8.016,1.350 C7.528,1.718 7.093,2.152 6.724,2.640 C6.138,2.392 5.507,2.265 4.870,2.265 C2.177,2.273 0.000,4.461 0.008,7.151 C0.015,9.397 1.558,11.348 3.745,11.873 L3.745,21.751 C3.745,22.992 4.752,23.999 5.995,23.999 L17.998,23.999 C19.241,23.999 20.249,22.992 20.249,21.751 L20.249,11.873 C22.445,11.351 23.997,9.392 24.000,7.137 ZM8.117,10.764 C10.437,12.423 13.557,12.423 15.877,10.764 C16.482,11.300 17.211,11.676 17.998,11.858 L17.998,18.004 L5.995,18.004 L5.995,11.858 C6.783,11.676 7.512,11.300 8.117,10.764 ZM5.995,21.751 L5.995,20.252 L17.998,20.252 L17.998,21.751 L5.995,21.751 ZM19.124,9.760 C18.235,9.758 17.408,9.307 16.926,8.561 C16.734,8.273 16.422,8.089 16.077,8.059 C16.046,8.052 16.015,8.050 15.983,8.051 C15.669,8.053 15.370,8.186 15.158,8.418 C13.475,10.162 10.697,10.212 8.952,8.531 C8.913,8.494 8.875,8.457 8.838,8.418 C8.606,8.159 8.264,8.026 7.917,8.059 C7.573,8.089 7.261,8.273 7.069,8.561 C6.282,9.777 4.656,10.126 3.438,9.340 C2.220,8.553 1.871,6.929 2.659,5.713 C3.144,4.963 3.978,4.511 4.871,4.514 C5.445,4.516 6.003,4.708 6.455,5.061 C6.730,5.269 7.084,5.340 7.418,5.256 C7.753,5.173 8.030,4.941 8.169,4.626 C9.232,2.512 11.810,1.659 13.927,2.722 C14.748,3.135 15.414,3.799 15.829,4.619 C15.968,4.935 16.244,5.170 16.579,5.256 C16.913,5.340 17.267,5.269 17.542,5.061 C17.995,4.708 18.552,4.516 19.126,4.514 C20.576,4.514 21.751,5.689 21.750,7.138 C21.750,8.586 20.574,9.760 19.124,9.760 Z" id="menu-nav" class="menu-svg"/>
</svg>
