<svg xmlns="http://www.w3.org/2000/svg" xmlns:xlink="http://www.w3.org/1999/xlink" preserveAspectRatio="xMidYMid" width="42" height="10" viewBox="0 0 42 10">
  <defs>
    <style>
      .cls-1 {
        stroke: #fff;
        stroke-width: 2px;
        fill: none;
        fill-rule: evenodd;
      }
    </style>
  </defs>
  <path d="M37.000,9.000 C34.791,9.000 33.000,7.209 33.000,5.000 C33.000,2.791 34.791,1.000 37.000,1.000 C39.209,1.000 41.000,2.791 41.000,5.000 C41.000,7.209 39.209,9.000 37.000,9.000 ZM21.000,9.000 C18.791,9.000 17.000,7.209 17.000,5.000 C17.000,2.791 18.791,1.000 21.000,1.000 C23.209,1.000 25.000,2.791 25.000,5.000 C25.000,7.209 23.209,9.000 21.000,9.000 ZM5.000,9.000 C2.791,9.000 1.000,7.209 1.000,5.000 C1.000,2.791 2.791,1.000 5.000,1.000 C7.209,1.000 9.000,2.791 9.000,5.000 C9.000,7.209 7.209,9.000 5.000,9.000 Z" class="cls-1"/>
</svg>
